<svg width="28" height="28" viewBox="0 0 28 28" fill="none" xmlns="http://www.w3.org/2000/svg">
<path d="M9.471 26.25H18.529C20.8062 25.3439 22.7592 23.7756 24.1356 21.7477C25.5121 19.7199 26.2486 17.3258 26.25 14.875H1.75C1.75141 17.3258 2.48793 19.7199 3.86435 21.7477C5.24077 23.7756 7.19382 25.3439 9.471 26.25V26.25Z" stroke="#27282C" stroke-width="1.5" stroke-miterlimit="10" stroke-linecap="round" stroke-linejoin="round"/>
<path d="M1.75 2.625C3.60652 2.625 5.38699 3.3625 6.69975 4.67525C8.0125 5.98801 8.75 7.76848 8.75 9.625V11.375C6.89348 11.375 5.11301 10.6375 3.80025 9.32475C2.4875 8.01199 1.75 6.23152 1.75 4.375V2.625Z" stroke="#27282C" stroke-width="1.5" stroke-miterlimit="10" stroke-linecap="round" stroke-linejoin="round"/>
<path d="M24.5 11.375C24.5061 10.7127 24.3603 10.0578 24.0739 9.46061C23.7875 8.8634 23.3681 8.33975 22.8478 7.92984C22.3276 7.51993 21.7203 7.23466 21.0727 7.09592C20.4251 6.95719 19.7543 6.96868 19.1117 7.12951C18.2995 5.89697 17.0694 4.99923 15.6479 4.60148C14.2263 4.20374 12.709 4.33274 11.375 4.96476" stroke="#27282C" stroke-width="1.5" stroke-miterlimit="10" stroke-linecap="round" stroke-linejoin="round"/>
</svg>
