<svg width="28" height="28" viewBox="0 0 28 28" fill="none" xmlns="http://www.w3.org/2000/svg">
<path d="M15.8769 23.6591L17.5 16.625H24.8115C25.369 16.6369 25.9114 16.4437 26.3358 16.0821C26.7602 15.7204 27.037 15.2155 27.1136 14.6632C27.1452 14.3585 27.1125 14.0506 27.0175 13.7594C26.9226 13.4681 26.7675 13.2001 26.5624 12.9726C26.3572 12.7451 26.1066 12.5632 25.8267 12.4387C25.5468 12.3142 25.2438 12.2499 24.9375 12.25H9.77725C9.61006 12.2498 9.44641 12.2018 9.30567 12.1115C9.16494 12.0212 9.05301 11.8925 8.98314 11.7407C8.91327 11.5888 8.88838 11.42 8.91141 11.2544C8.93445 11.0888 9.00445 10.9333 9.11312 10.8062L12.5458 6.80136C12.9195 6.36474 13.1249 5.80896 13.125 5.23424V5.23424C13.1251 4.77375 12.9932 4.32288 12.7448 3.93513C12.4964 3.54737 12.1421 3.23899 11.7237 3.04657C11.3053 2.85416 10.8406 2.78578 10.3845 2.84955C9.92847 2.91332 9.50028 3.10657 9.15075 3.40636L0.875 10.5V24.5L10.5525 26.9194C11.1164 27.0604 11.7027 27.0876 12.2772 26.9995C12.8517 26.9114 13.4029 26.7097 13.8986 26.4062C14.3943 26.1027 14.8245 25.7034 15.1642 25.2317C15.5039 24.7601 15.7461 24.2255 15.8769 23.6591V23.6591Z" stroke="white" stroke-width="1.5" stroke-miterlimit="10"/>
<path d="M24.5 1.75L20.125 6.125" stroke="white" stroke-width="1.5" stroke-miterlimit="10"/>
<path d="M16.625 5.25L17.5 1.75" stroke="white" stroke-width="1.5" stroke-miterlimit="10"/>
<path d="M21 9.625L24.5 8.75" stroke="white" stroke-width="1.5" stroke-miterlimit="10"/>
</svg>
