<svg width="24" height="24" viewBox="0 0 24 24" fill="none" xmlns="http://www.w3.org/2000/svg">
<path d="M21.668 17.6881C21.8479 20.5666 19.5619 23 16.6777 23H7.32226C4.43815 23 2.15209 20.5666 2.33199 17.6881L3 7H21L21.668 17.6881Z" stroke="#27282C" stroke-width="1.5" stroke-miterlimit="10" stroke-linecap="square"/>
<path d="M7.25 12C7.25 12.4142 7.58579 12.75 8 12.75C8.41421 12.75 8.75 12.4142 8.75 12H7.25ZM8 5L7.25 4.99776V5H8ZM12 1L12.0022 0.24999L11.9978 0.250003L12 1ZM16 5H16.75L16.75 4.99776L16 5ZM15.25 12C15.25 12.4142 15.5858 12.75 16 12.75C16.4142 12.75 16.75 12.4142 16.75 12H15.25ZM8.75 12V5H7.25V12H8.75ZM8.75 5.00224C8.75257 4.14048 9.09604 3.31476 9.7054 2.7054L8.64474 1.64474C7.75518 2.5343 7.25376 3.73973 7.25 4.99776L8.75 5.00224ZM9.7054 2.7054C10.3148 2.09604 11.1405 1.75257 12.0022 1.75L11.9978 0.250003C10.7397 0.253761 9.5343 0.755176 8.64474 1.64474L9.7054 2.7054ZM11.9978 1.75C12.8595 1.75257 13.6852 2.09604 14.2946 2.7054L15.3553 1.64474C14.4657 0.755176 13.2603 0.253761 12.0022 0.250003L11.9978 1.75ZM14.2946 2.7054C14.904 3.31476 15.2474 4.14048 15.25 5.00224L16.75 4.99776C16.7462 3.73973 16.2448 2.5343 15.3553 1.64474L14.2946 2.7054ZM15.25 5V12H16.75V5H15.25Z" fill="#27282C"/>
</svg>
