<svg width="14" height="13" viewBox="0 0 14 13" fill="none" xmlns="http://www.w3.org/2000/svg">
<path d="M5.7289 4.60405L6.99999 2.02813L8.27109 4.60405C8.45316 4.97302 8.80514 5.22877 9.21231 5.28793L12.055 5.70095L9.99802 7.70606L10.4871 8.2078L9.99802 7.70606C9.70344 7.99322 9.56901 8.40693 9.63853 8.81239L10.1239 11.6434L7.58181 10.3065L7.23272 10.9703L7.58181 10.3065C7.21758 10.115 6.78241 10.115 6.41818 10.3065L6.76727 10.9703L6.41818 10.3065L3.87605 11.6434L4.36145 8.81239C4.43098 8.40693 4.29655 7.99322 4.00197 7.70606L1.94502 5.70095L4.78768 5.28793L4.67984 4.54572L4.78768 5.28793C5.19485 5.22876 5.54683 4.97302 5.7289 4.60405Z" stroke="#27282C" stroke-width="1.5" stroke-miterlimit="10" stroke-linecap="square"/>
</svg>
