<svg width="13" height="13" viewBox="0 0 13 13" fill="none" xmlns="http://www.w3.org/2000/svg">
<path d="M5.88494 1.24191C6.06834 0.870255 6.59831 0.870255 6.7817 1.24191L8.27699 4.27217C8.34982 4.41976 8.49061 4.52206 8.65348 4.54572L11.9974 5.03158C12.4075 5.09117 12.5713 5.59515 12.2745 5.88442L9.85487 8.24311C9.73704 8.35798 9.68326 8.52346 9.71107 8.68565L10.2821 12.016C10.3521 12.4244 9.92336 12.7359 9.55656 12.543L6.56605 10.9703C6.42036 10.8937 6.24629 10.8937 6.1006 10.9703L3.11008 12.543C2.74328 12.7359 2.31451 12.4244 2.38455 12.016L2.95557 8.68565C2.98338 8.52346 2.92961 8.35798 2.81177 8.24311L0.392107 5.88442C0.0953566 5.59515 0.259119 5.09117 0.669228 5.03158L4.01317 4.54572C4.17603 4.52205 4.31683 4.41976 4.38965 4.27217L5.88494 1.24191Z" fill="#27282C"/>
</svg>
