<svg width="28" height="28" viewBox="0 0 28 28" fill="none" xmlns="http://www.w3.org/2000/svg">
<path d="M7.71769 8.03425C7.68775 9.52181 7.79053 11.0091 8.02481 12.4784C8.46756 14.4375 10.3961 16.4815 10.7461 17.3784C12.6396 15.1349 19.2458 12.6009 23.3049 14.7297C27.9591 17.7345 27.5653 22.7798 24.5299 24.983C22.1569 26.3741 19.4564 27.1082 16.7057 27.1101C13.5732 27.1889 11.3122 26.8634 10.3278 26.3708C8.70206 26.579 5.26857 26.5545 3.86594 25.1265C2.90344 24.1474 0.937316 18.5272 2.11594 12.5317C3.36719 6.20375 5.45407 0.875 7.70807 0.875C8.81231 0.875 10.6069 0.91175 11.4443 1.59075C12.2817 2.26975 11.6797 4.29625 11.4172 4.57363C11.699 4.80011 11.8851 5.12453 11.9383 5.48214C11.9915 5.83976 11.9079 6.20429 11.7042 6.503C11.0234 7.27715 10.1382 7.84366 9.15006 8.1375C8.6707 8.2054 8.18236 8.1702 7.71769 8.03425V8.03425Z" stroke="#27282C" stroke-width="1.5" stroke-miterlimit="10"/>
<path d="M13.6841 21.1593C16.5163 21.882 19.5195 21.4529 22.036 19.9658" stroke="#27282C" stroke-width="1.5" stroke-miterlimit="10"/>
</svg>
