<svg width="28" height="28" viewBox="0 0 28 28" fill="none" xmlns="http://www.w3.org/2000/svg">
<g clip-path="url(#clip0)">
<path d="M11.0833 6.41669H1.75V25.0834H25.0833V15.75" stroke="#27282C" stroke-width="1.5" stroke-miterlimit="10" stroke-linecap="square"/>
<path d="M15.75 4.08333V8.75C15.75 9.36884 15.9958 9.96233 16.4334 10.3999C16.871 10.8375 17.4645 11.0833 18.0833 11.0833V13.4167L22.75 11.0833H25.0833C25.7022 11.0833 26.2957 10.8375 26.7332 10.3999C27.1708 9.96233 27.4167 9.36884 27.4167 8.75V4.08333C27.4167 3.46449 27.1708 2.871 26.7332 2.43342C26.2957 1.99583 25.7022 1.75 25.0833 1.75H18.0833C17.4645 1.75 16.871 1.99583 16.4334 2.43342C15.9958 2.871 15.75 3.46449 15.75 4.08333V4.08333Z" stroke="#27282C" stroke-width="1.5" stroke-miterlimit="10" stroke-linecap="square"/>
<path d="M9.91634 15.75C11.205 15.75 12.2497 14.7053 12.2497 13.4166C12.2497 12.128 11.205 11.0833 9.91634 11.0833C8.62768 11.0833 7.58301 12.128 7.58301 13.4166C7.58301 14.7053 8.62768 15.75 9.91634 15.75Z" fill="#27282C"/>
<path d="M9.91667 16.9167C11.1543 16.9167 12.3413 17.4084 13.2165 18.2835C14.0917 19.1587 14.5833 20.3457 14.5833 21.5834H5.25C5.25 20.3457 5.74167 19.1587 6.61683 18.2835C7.492 17.4084 8.67899 16.9167 9.91667 16.9167Z" fill="#27282C"/>
</g>
<defs>
<clipPath id="clip0">
<rect width="28" height="28" fill="white"/>
</clipPath>
</defs>
</svg>
