<svg width="100" height="21" viewBox="0 0 100 21" fill="none" xmlns="http://www.w3.org/2000/svg">
<path d="M50.4512 6.3351C50.4138 6.3351 50.3758 6.33573 50.3371 6.33699C49.5915 6.36161 48.6411 6.64882 47.458 7.52435C47.4633 7.53256 47.4653 7.54266 47.47 7.55086C47.1052 6.91205 46.5196 6.46135 45.5879 6.46135C44.7323 6.46135 44 7.01052 44 7.81977C44 8.16632 44.122 8.36894 44.3055 8.60061C44.6102 9.03364 44.7323 9.4673 44.7323 10.2765V19.5254C44.7323 20.3643 45.4352 21 46.3816 21C47.2973 21 48.0309 20.3643 48.0309 19.5254V10.2765C48.0309 10.2058 48.0289 10.132 48.0276 10.0588C48.0276 10.0676 48.0289 10.0764 48.0289 10.0853C48.6778 9.76714 49.3107 9.54683 50.4405 9.54683C50.5085 9.54683 50.5779 9.54746 50.6492 9.54936C50.6893 9.55125 50.7293 9.55251 50.7693 9.55251C51.631 9.55251 52.3286 8.95978 52.3286 8.07479C52.3286 7.28574 51.9144 6.3351 50.4512 6.3351Z" fill="#24422B"/>
<path d="M39.9236 18.196C39.8016 18.196 39.5882 18.2251 39.3741 18.2251C37.542 18.2251 37.2973 17.301 37.2973 14.7571V9.69896H40.0157C40.8707 9.69896 41.5729 9.09234 41.5729 8.3115C41.5729 7.50226 40.8707 6.89501 40.0157 6.89501H37.2973V3.31084C37.2973 2.53063 36.687 1.86594 35.6486 1.86594C34.5802 1.86594 34 2.50159 34 3.31084V6.89501V9.69896V14.9597C34 18.9188 35.1298 21 39.6188 21C40.81 21 41.9698 20.8264 41.9698 19.4977C41.9698 18.5142 41.2368 18.196 39.9236 18.196Z" fill="#24422B"/>
<path d="M55.6486 6.05672C54.7023 6.05672 54 6.72142 54 7.50226V19.5545C54 20.3927 54.7023 21 55.6486 21C56.5657 21 57.2979 20.3927 57.2979 19.5545V7.50226C57.2979 6.72142 56.5657 6.05672 55.6486 6.05672Z" fill="#24422B"/>
<path d="M67.9243 18.196C67.8022 18.196 67.5895 18.2251 67.3747 18.2251C65.542 18.2251 65.2979 17.301 65.2979 14.7571V3.31084C65.2979 2.53063 64.6877 1.86594 63.6493 1.86594C62.5809 1.86594 62 2.50159 62 3.31084V14.9597C62 18.9188 63.1304 21 67.6188 21C68.8106 21 69.9711 20.8264 69.9711 19.4977C69.9711 18.5142 69.2375 18.196 67.9243 18.196Z" fill="#24422B"/>
<path d="M97.5836 18.196C97.4623 18.196 97.2482 18.2251 97.0341 18.2251C95.2021 18.2251 94.9573 17.301 94.9573 14.7571V9.69896H97.6757C98.5307 9.69896 99.233 9.09234 99.233 8.3115C99.233 7.50226 98.5307 6.89501 97.6757 6.89501H94.9573V3.31084C94.9573 2.53063 94.3471 1.86594 93.3087 1.86594C92.2396 1.86594 91.6594 2.50159 91.6594 3.31084V6.89501H86.2993V3.31084C86.2993 2.53063 85.6877 1.86594 84.65 1.86594C83.5802 1.86594 83 2.50159 83 3.31084V14.9597C83 18.9188 84.1311 21 88.6195 21C89.8106 21 90.9711 20.8264 90.9711 19.4977C90.9711 18.5142 90.2381 18.196 88.925 18.196C88.8029 18.196 88.5895 18.2251 88.3754 18.2251C86.5427 18.2251 86.2993 17.301 86.2993 14.7571V9.69896H91.6594V14.9597C91.6594 18.9188 92.7898 21 97.2789 21C98.47 21 99.6298 20.8264 99.6298 19.4977C99.6298 18.5142 98.8968 18.196 97.5836 18.196Z" fill="#24422B"/>
<path d="M30.8352 17.7586V17.758C30.8239 17.6974 30.8172 17.6248 30.8092 17.5516C30.8086 17.5427 30.8072 17.5358 30.8066 17.5269L30.8006 17.4827C30.7952 17.4158 30.7939 17.335 30.7926 17.2568C30.7912 17.2119 30.7879 17.1753 30.7879 17.1267V15.6339V7.44418C30.7879 6.6343 30.2377 6.02769 29.1393 6.02769C28.0395 6.02769 27.4893 6.6343 27.4893 7.44418V16.4557C27.4973 16.7575 27.5333 17.1981 27.5753 17.52C27.5666 17.5238 27.56 17.5276 27.5513 17.5314C26.5736 18.0225 25.5966 18.3116 24.6802 18.3116C23.0929 18.3116 22.2986 17.2713 22.2986 15.4218V7.44418C22.2986 6.6343 21.6884 6.02769 20.65 6.02769C19.5802 6.02769 19 6.6343 19 7.44418V15.4218C19 18.7452 20.802 21 24.2534 21C25.6572 21 27.1538 20.6812 28.5284 19.8436C28.5797 19.8114 28.5797 19.8114 28.5284 19.8436C28.9252 20.4218 29.4447 20.8258 30.1163 20.8258C30.9099 20.8258 31.6736 20.2772 31.6736 19.439C31.6736 19.0924 31.5208 18.8614 31.3374 18.6587C31.1127 18.3595 30.9206 18.2188 30.8352 17.7586Z" fill="#24422B"/>
<path d="M73.2979 10.7683C73.2979 9.38082 74.275 8.5135 75.9857 8.5135C77.4816 8.5135 78.3059 9.12075 78.3059 10.6521C78.3059 11.8666 77.7263 12.6468 75.9857 12.6468C75.5275 12.6468 74.3363 12.5894 73.2979 12.4732V10.7683ZM76.0163 15.0746C79.8938 15.0746 81.5738 13.4555 81.5738 10.7392C81.5738 7.84881 79.7418 5.94121 76.0463 5.94121C72.1068 5.94121 70 8.10887 70 10.9412V11.955V14.2697V16.0574C70 18.8614 72.1375 21 75.8936 21C77.695 21 81.299 20.5089 81.299 18.7749C81.299 18.196 80.8402 17.4739 79.8025 17.4739C79.4363 17.4739 79.2229 17.5604 79.1302 17.6185C78.1225 18.0521 77.2988 18.3406 76.1684 18.3406C74.245 18.3406 73.2979 17.5023 73.2979 16.202V14.8726C74.275 15.0171 75.1607 15.0746 76.0163 15.0746Z" fill="#24422B"/>
<path d="M13.0871 -1.52787e-05C12.1707 -1.52787e-05 11.3771 0.694346 11.3771 1.532L11.3684 14.5506C8.36657 9.38396 4.34568 2.42393 3.45067 0.941159C3.11454 0.421019 2.44295 0.0738398 1.77135 0.0738398C0.732284 0.0738398 0 0.7682 0 1.69296V19.468C0 20.2772 0.702272 21 1.64864 21C2.56433 21 3.35863 20.2772 3.35863 19.468V6.60588L11.299 20.1617C11.5598 20.5827 12.1134 20.88 12.6689 20.9634C12.6789 20.9653 12.6896 20.9653 12.6996 20.9672C12.7823 20.9785 12.8656 20.9994 12.9477 21C12.963 21 12.977 20.9975 12.993 20.9975C12.9937 20.9975 12.9944 20.9975 12.995 20.9975L13.0931 20.9918C13.0944 20.9918 13.0957 20.9911 13.0977 20.9911C13.1611 20.9874 13.2245 20.9829 13.2838 20.9741H13.2845L13.4219 20.9476C13.4225 20.9476 13.4232 20.9476 13.4239 20.947C13.7367 20.8763 13.9901 20.738 14.1888 20.5657L14.1895 20.5651L14.2302 20.5291C14.2308 20.5291 14.2308 20.5284 14.2315 20.5284C14.2569 20.5045 14.2822 20.4805 14.3062 20.4559C14.3095 20.4521 14.3135 20.4502 14.3175 20.4464C14.3275 20.4357 14.3355 20.423 14.3456 20.4117C14.3742 20.3795 14.4022 20.3473 14.4276 20.3138L14.4396 20.2974C14.4403 20.2968 14.4403 20.2955 14.4409 20.2949C14.4463 20.2879 14.4509 20.281 14.4556 20.2741C14.4623 20.2652 14.4716 20.2564 14.4776 20.2469C14.4823 20.24 14.4856 20.2324 14.4903 20.2255C14.5003 20.2109 14.5116 20.1964 14.521 20.1819C14.5563 20.1238 14.591 20.0531 14.591 20.0531C14.5903 20.0531 14.5903 20.0525 14.5903 20.0519H14.5896H14.5903C14.6763 19.8713 14.725 19.6738 14.725 19.4673L14.7357 1.532C14.7357 0.694346 14.0034 -1.52787e-05 13.0871 -1.52787e-05Z" fill="#24422B"/>
<path d="M55.9147 1.60584C54.821 1.60584 54 2.35385 54 3.3026C54 4.22358 54.821 5 55.9147 5C56.9785 5 57.7995 4.25262 57.8295 3.3026C57.8295 2.38226 56.9785 1.60584 55.9147 1.60584Z" fill="#24422B"/>
</svg>
