<svg width="28" height="28" viewBox="0 0 28 28" fill="none" xmlns="http://www.w3.org/2000/svg">
<path d="M18.375 7.875H19.25" stroke="#27282C" stroke-width="1.5" stroke-miterlimit="10" stroke-linecap="round" stroke-linejoin="round"/>
<path d="M7 7.875H14" stroke="#27282C" stroke-width="1.5" stroke-miterlimit="10" stroke-linecap="round" stroke-linejoin="round"/>
<path d="M7 14H12.25" stroke="#27282C" stroke-width="1.5" stroke-miterlimit="10" stroke-linecap="round" stroke-linejoin="round"/>
<path d="M7 20.125H7.875" stroke="#27282C" stroke-width="1.5" stroke-miterlimit="10" stroke-linecap="round" stroke-linejoin="round"/>
<path d="M13.125 27.125H1.75V0.875H24.5V7.875" stroke="#27282C" stroke-width="1.5" stroke-miterlimit="10" stroke-linecap="round" stroke-linejoin="round"/>
<path d="M20.5625 26.6201L21.7953 27.0138C22.3507 27.1984 22.956 27.1601 23.4837 26.9071C24.0114 26.6541 24.4203 26.2061 24.6242 25.6576L26.0426 21.5722C26.2506 20.9061 26.2725 20.1959 26.1061 19.5182C25.9397 18.8405 25.5912 18.2212 25.0983 17.7273C24.6054 17.2333 23.9869 16.8835 23.3096 16.7156C22.6323 16.5477 21.922 16.5681 21.2555 16.7746L20.5625 16.9645L19.8695 16.7746C19.2029 16.5681 18.4926 16.5477 17.8153 16.7156C17.138 16.8835 16.5195 17.2333 16.0266 17.7273C15.5337 18.2212 15.1852 18.8405 15.0188 19.5182C14.8524 20.1959 14.8743 20.9061 15.0823 21.5722L16.5007 25.6576C16.7046 26.2061 17.1135 26.6541 17.6412 26.9071C18.1689 27.1601 18.7742 27.1984 19.3296 27.0138L20.5625 26.6201Z" stroke="#27282C" stroke-width="1.5" stroke-miterlimit="10" stroke-linecap="round" stroke-linejoin="round"/>
<path d="M24.5 10.5V11.375C24.5 12.3033 24.1313 13.1935 23.4749 13.8499C22.8185 14.5063 21.9283 14.875 21 14.875V14C21 13.0717 21.3687 12.1815 22.0251 11.5251C22.6815 10.8687 23.5717 10.5 24.5 10.5Z" fill="#27282C"/>
</svg>
